<mxfile host="app.diagrams.net" modified="2022-12-15T10:00:24.974Z" agent="5.0 (Windows NT 10.0; Win64; x64) AppleWebKit/537.36 (KHTML, like Gecko) Chrome/108.0.0.0 Safari/537.36" etag="p4133tIbNAsTDYGveKr-" version="20.6.2" type="github">
  <diagram id="-9A7kYpHKUTulMZGhSV-" name="第 1 页">
    <mxGraphModel dx="3076" dy="3100" grid="1" gridSize="10" guides="1" tooltips="1" connect="1" arrows="1" fold="1" page="1" pageScale="1" pageWidth="827" pageHeight="1169" math="0" shadow="0">
      <root>
        <mxCell id="0" />
        <mxCell id="1" parent="0" />
        <mxCell id="b-EaO_gphr59r_hB4Qln-1" value="角色表&#xa;（amc_user_role）" style="swimlane;fontStyle=0;childLayout=stackLayout;horizontal=1;startSize=50;horizontalStack=0;resizeParent=1;resizeParentMax=0;resizeLast=0;collapsible=1;marginBottom=0;align=center;fontSize=14;fillColor=#ffe6cc;strokeColor=#d79b00;" parent="1" vertex="1">
          <mxGeometry x="160" y="-320" width="160" height="140" as="geometry" />
        </mxCell>
        <mxCell id="b-EaO_gphr59r_hB4Qln-7" value="+roleId  角色id" style="text;strokeColor=none;fillColor=none;spacingLeft=4;spacingRight=4;overflow=hidden;rotatable=0;points=[[0,0.5],[1,0.5]];portConstraint=eastwest;fontSize=12;" parent="b-EaO_gphr59r_hB4Qln-1" vertex="1">
          <mxGeometry y="50" width="160" height="30" as="geometry" />
        </mxCell>
        <mxCell id="b-EaO_gphr59r_hB4Qln-2" value="+userCode 账户编码" style="text;strokeColor=none;fillColor=none;spacingLeft=4;spacingRight=4;overflow=hidden;rotatable=0;points=[[0,0.5],[1,0.5]];portConstraint=eastwest;fontSize=12;" parent="b-EaO_gphr59r_hB4Qln-1" vertex="1">
          <mxGeometry y="80" width="160" height="30" as="geometry" />
        </mxCell>
        <mxCell id="b-EaO_gphr59r_hB4Qln-12" value="+groupId 用户组id" style="text;strokeColor=none;fillColor=none;spacingLeft=4;spacingRight=4;overflow=hidden;rotatable=0;points=[[0,0.5],[1,0.5]];portConstraint=eastwest;fontSize=12;" parent="b-EaO_gphr59r_hB4Qln-1" vertex="1">
          <mxGeometry y="110" width="160" height="30" as="geometry" />
        </mxCell>
        <mxCell id="DFz6cAXaERrvMMqx2b_M-1" value="人员岗位表&#xa;（amc_user_post）" style="swimlane;fontStyle=0;childLayout=stackLayout;horizontal=1;startSize=50;horizontalStack=0;resizeParent=1;resizeParentMax=0;resizeLast=0;collapsible=1;marginBottom=0;align=center;fontSize=14;fillColor=#ffe6cc;strokeColor=#d79b00;" parent="1" vertex="1">
          <mxGeometry x="70" y="280" width="160" height="260" as="geometry" />
        </mxCell>
        <mxCell id="DFz6cAXaERrvMMqx2b_M-2" value="+userCode 工号" style="text;strokeColor=none;fillColor=none;spacingLeft=4;spacingRight=4;overflow=hidden;rotatable=0;points=[[0,0.5],[1,0.5]];portConstraint=eastwest;fontSize=12;" parent="DFz6cAXaERrvMMqx2b_M-1" vertex="1">
          <mxGeometry y="50" width="160" height="30" as="geometry" />
        </mxCell>
        <mxCell id="DFz6cAXaERrvMMqx2b_M-3" value="+postId 岗位id" style="text;strokeColor=none;fillColor=none;spacingLeft=4;spacingRight=4;overflow=hidden;rotatable=0;points=[[0,0.5],[1,0.5]];portConstraint=eastwest;fontSize=12;" parent="DFz6cAXaERrvMMqx2b_M-1" vertex="1">
          <mxGeometry y="80" width="160" height="30" as="geometry" />
        </mxCell>
        <mxCell id="DFz6cAXaERrvMMqx2b_M-4" value="+postName 岗位名称" style="text;strokeColor=none;fillColor=none;spacingLeft=4;spacingRight=4;overflow=hidden;rotatable=0;points=[[0,0.5],[1,0.5]];portConstraint=eastwest;fontSize=12;" parent="DFz6cAXaERrvMMqx2b_M-1" vertex="1">
          <mxGeometry y="110" width="160" height="30" as="geometry" />
        </mxCell>
        <mxCell id="DFz6cAXaERrvMMqx2b_M-5" value="+labelOne 一级标签" style="text;strokeColor=none;fillColor=none;spacingLeft=4;spacingRight=4;overflow=hidden;rotatable=0;points=[[0,0.5],[1,0.5]];portConstraint=eastwest;fontSize=12;" parent="DFz6cAXaERrvMMqx2b_M-1" vertex="1">
          <mxGeometry y="140" width="160" height="30" as="geometry" />
        </mxCell>
        <mxCell id="DFz6cAXaERrvMMqx2b_M-6" value="+labelTwo 二级标签" style="text;strokeColor=none;fillColor=none;spacingLeft=4;spacingRight=4;overflow=hidden;rotatable=0;points=[[0,0.5],[1,0.5]];portConstraint=eastwest;fontSize=12;" parent="DFz6cAXaERrvMMqx2b_M-1" vertex="1">
          <mxGeometry y="170" width="160" height="30" as="geometry" />
        </mxCell>
        <mxCell id="DFz6cAXaERrvMMqx2b_M-8" value="+labelThree 三级标签" style="text;strokeColor=none;fillColor=none;spacingLeft=4;spacingRight=4;overflow=hidden;rotatable=0;points=[[0,0.5],[1,0.5]];portConstraint=eastwest;fontSize=12;" parent="DFz6cAXaERrvMMqx2b_M-1" vertex="1">
          <mxGeometry y="200" width="160" height="30" as="geometry" />
        </mxCell>
        <mxCell id="DFz6cAXaERrvMMqx2b_M-7" value="+mainPost 是否主岗" style="text;strokeColor=none;fillColor=none;spacingLeft=4;spacingRight=4;overflow=hidden;rotatable=0;points=[[0,0.5],[1,0.5]];portConstraint=eastwest;fontSize=12;" parent="DFz6cAXaERrvMMqx2b_M-1" vertex="1">
          <mxGeometry y="230" width="160" height="30" as="geometry" />
        </mxCell>
        <mxCell id="DFz6cAXaERrvMMqx2b_M-9" value="账号登录系统关联表&#xa;（amc_user_system）" style="swimlane;fontStyle=0;childLayout=stackLayout;horizontal=1;startSize=50;horizontalStack=0;resizeParent=1;resizeParentMax=0;resizeLast=0;collapsible=1;marginBottom=0;align=center;fontSize=14;fillColor=#ffe6cc;strokeColor=#d79b00;" parent="1" vertex="1">
          <mxGeometry x="370" y="280" width="160" height="260" as="geometry" />
        </mxCell>
        <mxCell id="DFz6cAXaERrvMMqx2b_M-10" value="+userCode 工号" style="text;strokeColor=none;fillColor=none;spacingLeft=4;spacingRight=4;overflow=hidden;rotatable=0;points=[[0,0.5],[1,0.5]];portConstraint=eastwest;fontSize=12;" parent="DFz6cAXaERrvMMqx2b_M-9" vertex="1">
          <mxGeometry y="50" width="160" height="30" as="geometry" />
        </mxCell>
        <mxCell id="DFz6cAXaERrvMMqx2b_M-11" value="+homeSystem 可登录的系统" style="text;strokeColor=none;fillColor=none;spacingLeft=4;spacingRight=4;overflow=hidden;rotatable=0;points=[[0,0.5],[1,0.5]];portConstraint=eastwest;fontSize=12;" parent="DFz6cAXaERrvMMqx2b_M-9" vertex="1">
          <mxGeometry y="80" width="160" height="30" as="geometry" />
        </mxCell>
        <mxCell id="DFz6cAXaERrvMMqx2b_M-12" value="+loginOff  系统登录开关" style="text;strokeColor=none;fillColor=none;spacingLeft=4;spacingRight=4;overflow=hidden;rotatable=0;points=[[0,0.5],[1,0.5]];portConstraint=eastwest;fontSize=12;" parent="DFz6cAXaERrvMMqx2b_M-9" vertex="1">
          <mxGeometry y="110" width="160" height="30" as="geometry" />
        </mxCell>
        <mxCell id="DFz6cAXaERrvMMqx2b_M-13" value="+labelOne 一级标签" style="text;strokeColor=none;fillColor=none;spacingLeft=4;spacingRight=4;overflow=hidden;rotatable=0;points=[[0,0.5],[1,0.5]];portConstraint=eastwest;fontSize=12;" parent="DFz6cAXaERrvMMqx2b_M-9" vertex="1">
          <mxGeometry y="140" width="160" height="30" as="geometry" />
        </mxCell>
        <mxCell id="DFz6cAXaERrvMMqx2b_M-14" value="+labelTwo 二级标签" style="text;strokeColor=none;fillColor=none;spacingLeft=4;spacingRight=4;overflow=hidden;rotatable=0;points=[[0,0.5],[1,0.5]];portConstraint=eastwest;fontSize=12;" parent="DFz6cAXaERrvMMqx2b_M-9" vertex="1">
          <mxGeometry y="170" width="160" height="30" as="geometry" />
        </mxCell>
        <mxCell id="DFz6cAXaERrvMMqx2b_M-15" value="+labelThree 三级标签" style="text;strokeColor=none;fillColor=none;spacingLeft=4;spacingRight=4;overflow=hidden;rotatable=0;points=[[0,0.5],[1,0.5]];portConstraint=eastwest;fontSize=12;" parent="DFz6cAXaERrvMMqx2b_M-9" vertex="1">
          <mxGeometry y="200" width="160" height="30" as="geometry" />
        </mxCell>
        <mxCell id="DFz6cAXaERrvMMqx2b_M-16" value="+mainPost 是否主岗" style="text;strokeColor=none;fillColor=none;spacingLeft=4;spacingRight=4;overflow=hidden;rotatable=0;points=[[0,0.5],[1,0.5]];portConstraint=eastwest;fontSize=12;" parent="DFz6cAXaERrvMMqx2b_M-9" vertex="1">
          <mxGeometry y="230" width="160" height="30" as="geometry" />
        </mxCell>
        <mxCell id="DFz6cAXaERrvMMqx2b_M-17" value="用户组-角色关联表&#xa;(amc_user_group_role)" style="swimlane;fontStyle=0;childLayout=stackLayout;horizontal=1;startSize=50;horizontalStack=0;resizeParent=1;resizeParentMax=0;resizeLast=0;collapsible=1;marginBottom=0;align=center;fontSize=14;fillColor=#ffe6cc;strokeColor=#d79b00;" parent="1" vertex="1">
          <mxGeometry x="-140" y="-50" width="160" height="110" as="geometry" />
        </mxCell>
        <mxCell id="DFz6cAXaERrvMMqx2b_M-18" value="+groupId 用户组id" style="text;strokeColor=none;fillColor=none;spacingLeft=4;spacingRight=4;overflow=hidden;rotatable=0;points=[[0,0.5],[1,0.5]];portConstraint=eastwest;fontSize=12;" parent="DFz6cAXaERrvMMqx2b_M-17" vertex="1">
          <mxGeometry y="50" width="160" height="30" as="geometry" />
        </mxCell>
        <mxCell id="DFz6cAXaERrvMMqx2b_M-19" value="+roleId  角色id" style="text;strokeColor=none;fillColor=none;spacingLeft=4;spacingRight=4;overflow=hidden;rotatable=0;points=[[0,0.5],[1,0.5]];portConstraint=eastwest;fontSize=12;" parent="DFz6cAXaERrvMMqx2b_M-17" vertex="1">
          <mxGeometry y="80" width="160" height="30" as="geometry" />
        </mxCell>
        <mxCell id="DFz6cAXaERrvMMqx2b_M-25" value="用户组表&#xa;（amc_user_group）" style="swimlane;fontStyle=0;childLayout=stackLayout;horizontal=1;startSize=50;horizontalStack=0;resizeParent=1;resizeParentMax=0;resizeLast=0;collapsible=1;marginBottom=0;align=center;fontSize=14;fillColor=#ffe6cc;strokeColor=#d79b00;" parent="1" vertex="1">
          <mxGeometry x="-550" y="-320" width="280" height="230" as="geometry" />
        </mxCell>
        <mxCell id="DFz6cAXaERrvMMqx2b_M-55" value="+id  用户组id" style="text;strokeColor=none;fillColor=none;spacingLeft=4;spacingRight=4;overflow=hidden;rotatable=0;points=[[0,0.5],[1,0.5]];portConstraint=eastwest;fontSize=12;" parent="DFz6cAXaERrvMMqx2b_M-25" vertex="1">
          <mxGeometry y="50" width="280" height="30" as="geometry" />
        </mxCell>
        <mxCell id="DFz6cAXaERrvMMqx2b_M-26" value="+groupName 用户组名称" style="text;strokeColor=none;fillColor=none;spacingLeft=4;spacingRight=4;overflow=hidden;rotatable=0;points=[[0,0.5],[1,0.5]];portConstraint=eastwest;fontSize=12;" parent="DFz6cAXaERrvMMqx2b_M-25" vertex="1">
          <mxGeometry y="80" width="280" height="30" as="geometry" />
        </mxCell>
        <mxCell id="DFz6cAXaERrvMMqx2b_M-27" value="+userAttribute 人员属性" style="text;strokeColor=none;fillColor=none;spacingLeft=4;spacingRight=4;overflow=hidden;rotatable=0;points=[[0,0.5],[1,0.5]];portConstraint=eastwest;fontSize=12;" parent="DFz6cAXaERrvMMqx2b_M-25" vertex="1">
          <mxGeometry y="110" width="280" height="30" as="geometry" />
        </mxCell>
        <mxCell id="DFz6cAXaERrvMMqx2b_M-28" value="+userPost  岗位" style="text;strokeColor=none;fillColor=none;spacingLeft=4;spacingRight=4;overflow=hidden;rotatable=0;points=[[0,0.5],[1,0.5]];portConstraint=eastwest;fontSize=12;" parent="DFz6cAXaERrvMMqx2b_M-25" vertex="1">
          <mxGeometry y="140" width="280" height="30" as="geometry" />
        </mxCell>
        <mxCell id="DFz6cAXaERrvMMqx2b_M-29" value="+userDept 部门wholeId（多部门多条数据）" style="text;strokeColor=none;fillColor=none;spacingLeft=4;spacingRight=4;overflow=hidden;rotatable=0;points=[[0,0.5],[1,0.5]];portConstraint=eastwest;fontSize=12;" parent="DFz6cAXaERrvMMqx2b_M-25" vertex="1">
          <mxGeometry y="170" width="280" height="30" as="geometry" />
        </mxCell>
        <mxCell id="DFz6cAXaERrvMMqx2b_M-31" value="+groupStatus 用户组状态状态（0- 禁用 1-开启）" style="text;strokeColor=none;fillColor=none;spacingLeft=4;spacingRight=4;overflow=hidden;rotatable=0;points=[[0,0.5],[1,0.5]];portConstraint=eastwest;fontSize=12;" parent="DFz6cAXaERrvMMqx2b_M-25" vertex="1">
          <mxGeometry y="200" width="280" height="30" as="geometry" />
        </mxCell>
        <mxCell id="DFz6cAXaERrvMMqx2b_M-32" value="用户组-部门(组织)关联表&#xa;（amc_group_dept）" style="swimlane;fontStyle=0;childLayout=stackLayout;horizontal=1;startSize=50;horizontalStack=0;resizeParent=1;resizeParentMax=0;resizeLast=0;collapsible=1;marginBottom=0;align=center;fontSize=14;fillColor=#ffe6cc;strokeColor=#d79b00;" parent="1" vertex="1">
          <mxGeometry x="-890" y="-50" width="280" height="110" as="geometry" />
        </mxCell>
        <mxCell id="DFz6cAXaERrvMMqx2b_M-33" value="+groupId 用户组" style="text;strokeColor=none;fillColor=none;spacingLeft=4;spacingRight=4;overflow=hidden;rotatable=0;points=[[0,0.5],[1,0.5]];portConstraint=eastwest;fontSize=12;" parent="DFz6cAXaERrvMMqx2b_M-32" vertex="1">
          <mxGeometry y="50" width="280" height="30" as="geometry" />
        </mxCell>
        <mxCell id="DFz6cAXaERrvMMqx2b_M-34" value="+deptId 部门id" style="text;strokeColor=none;fillColor=none;spacingLeft=4;spacingRight=4;overflow=hidden;rotatable=0;points=[[0,0.5],[1,0.5]];portConstraint=eastwest;fontSize=12;" parent="DFz6cAXaERrvMMqx2b_M-32" vertex="1">
          <mxGeometry y="80" width="280" height="30" as="geometry" />
        </mxCell>
        <mxCell id="DFz6cAXaERrvMMqx2b_M-38" value="人员组织关联表&#xa;（amc_group_dept）" style="swimlane;fontStyle=0;childLayout=stackLayout;horizontal=1;startSize=50;horizontalStack=0;resizeParent=1;resizeParentMax=0;resizeLast=0;collapsible=1;marginBottom=0;align=center;fontSize=14;fillColor=#ffe6cc;strokeColor=#d79b00;" parent="1" vertex="1">
          <mxGeometry x="-1330" y="-290" width="280" height="200" as="geometry" />
        </mxCell>
        <mxCell id="DFz6cAXaERrvMMqx2b_M-39" value="+userCode 工号" style="text;strokeColor=none;fillColor=none;spacingLeft=4;spacingRight=4;overflow=hidden;rotatable=0;points=[[0,0.5],[1,0.5]];portConstraint=eastwest;fontSize=12;" parent="DFz6cAXaERrvMMqx2b_M-38" vertex="1">
          <mxGeometry y="50" width="280" height="30" as="geometry" />
        </mxCell>
        <mxCell id="DFz6cAXaERrvMMqx2b_M-40" value="+deptId 组织编码" style="text;strokeColor=none;fillColor=none;spacingLeft=4;spacingRight=4;overflow=hidden;rotatable=0;points=[[0,0.5],[1,0.5]];portConstraint=eastwest;fontSize=12;" parent="DFz6cAXaERrvMMqx2b_M-38" vertex="1">
          <mxGeometry y="80" width="280" height="30" as="geometry" />
        </mxCell>
        <mxCell id="DFz6cAXaERrvMMqx2b_M-44" value="+deptName 组织名称" style="text;strokeColor=none;fillColor=none;spacingLeft=4;spacingRight=4;overflow=hidden;rotatable=0;points=[[0,0.5],[1,0.5]];portConstraint=eastwest;fontSize=12;" parent="DFz6cAXaERrvMMqx2b_M-38" vertex="1">
          <mxGeometry y="110" width="280" height="30" as="geometry" />
        </mxCell>
        <mxCell id="DFz6cAXaERrvMMqx2b_M-46" value="+deptAttr  组织属性" style="text;strokeColor=none;fillColor=none;spacingLeft=4;spacingRight=4;overflow=hidden;rotatable=0;points=[[0,0.5],[1,0.5]];portConstraint=eastwest;fontSize=12;" parent="DFz6cAXaERrvMMqx2b_M-38" vertex="1">
          <mxGeometry y="140" width="280" height="30" as="geometry" />
        </mxCell>
        <mxCell id="DFz6cAXaERrvMMqx2b_M-45" value="+isMain 是否主组织" style="text;strokeColor=none;fillColor=none;spacingLeft=4;spacingRight=4;overflow=hidden;rotatable=0;points=[[0,0.5],[1,0.5]];portConstraint=eastwest;fontSize=12;" parent="DFz6cAXaERrvMMqx2b_M-38" vertex="1">
          <mxGeometry y="170" width="280" height="30" as="geometry" />
        </mxCell>
        <mxCell id="DFz6cAXaERrvMMqx2b_M-47" value="账号信息表&#xa;（amc_group_dept）" style="swimlane;fontStyle=0;childLayout=stackLayout;horizontal=1;startSize=50;horizontalStack=0;resizeParent=1;resizeParentMax=0;resizeLast=0;collapsible=1;marginBottom=0;align=center;fontSize=14;fillColor=#ffe6cc;strokeColor=#d79b00;" parent="1" vertex="1">
          <mxGeometry x="-553" y="-980" width="280" height="260" as="geometry" />
        </mxCell>
        <mxCell id="DFz6cAXaERrvMMqx2b_M-48" value="+userCode 工号" style="text;strokeColor=none;fillColor=none;spacingLeft=4;spacingRight=4;overflow=hidden;rotatable=0;points=[[0,0.5],[1,0.5]];portConstraint=eastwest;fontSize=12;" parent="DFz6cAXaERrvMMqx2b_M-47" vertex="1">
          <mxGeometry y="50" width="280" height="30" as="geometry" />
        </mxCell>
        <mxCell id="DFz6cAXaERrvMMqx2b_M-49" value="+email  邮箱地址" style="text;strokeColor=none;fillColor=none;spacingLeft=4;spacingRight=4;overflow=hidden;rotatable=0;points=[[0,0.5],[1,0.5]];portConstraint=eastwest;fontSize=12;" parent="DFz6cAXaERrvMMqx2b_M-47" vertex="1">
          <mxGeometry y="80" width="280" height="30" as="geometry" />
        </mxCell>
        <mxCell id="DFz6cAXaERrvMMqx2b_M-50" value="+cnName 中文名称" style="text;strokeColor=none;fillColor=none;spacingLeft=4;spacingRight=4;overflow=hidden;rotatable=0;points=[[0,0.5],[1,0.5]];portConstraint=eastwest;fontSize=12;" parent="DFz6cAXaERrvMMqx2b_M-47" vertex="1">
          <mxGeometry y="110" width="280" height="30" as="geometry" />
        </mxCell>
        <mxCell id="DFz6cAXaERrvMMqx2b_M-51" value="+enName 英文名称(拼音)" style="text;strokeColor=none;fillColor=none;spacingLeft=4;spacingRight=4;overflow=hidden;rotatable=0;points=[[0,0.5],[1,0.5]];portConstraint=eastwest;fontSize=12;" parent="DFz6cAXaERrvMMqx2b_M-47" vertex="1">
          <mxGeometry y="140" width="280" height="30" as="geometry" />
        </mxCell>
        <mxCell id="DFz6cAXaERrvMMqx2b_M-52" value="+phoneNumber 手机号码" style="text;strokeColor=none;fillColor=none;spacingLeft=4;spacingRight=4;overflow=hidden;rotatable=0;points=[[0,0.5],[1,0.5]];portConstraint=eastwest;fontSize=12;" parent="DFz6cAXaERrvMMqx2b_M-47" vertex="1">
          <mxGeometry y="170" width="280" height="30" as="geometry" />
        </mxCell>
        <mxCell id="DFz6cAXaERrvMMqx2b_M-53" value="+companyNo 主体编号" style="text;strokeColor=none;fillColor=none;spacingLeft=4;spacingRight=4;overflow=hidden;rotatable=0;points=[[0,0.5],[1,0.5]];portConstraint=eastwest;fontSize=12;" parent="DFz6cAXaERrvMMqx2b_M-47" vertex="1">
          <mxGeometry y="200" width="280" height="30" as="geometry" />
        </mxCell>
        <mxCell id="DFz6cAXaERrvMMqx2b_M-54" value="+status 账号状态 1 冻结 0 启用 2 锁定" style="text;strokeColor=none;fillColor=none;spacingLeft=4;spacingRight=4;overflow=hidden;rotatable=0;points=[[0,0.5],[1,0.5]];portConstraint=eastwest;fontSize=12;" parent="DFz6cAXaERrvMMqx2b_M-47" vertex="1">
          <mxGeometry y="230" width="280" height="30" as="geometry" />
        </mxCell>
        <mxCell id="DFz6cAXaERrvMMqx2b_M-56" style="edgeStyle=orthogonalEdgeStyle;curved=1;rounded=0;orthogonalLoop=1;jettySize=auto;html=1;exitX=1;exitY=0.5;exitDx=0;exitDy=0;entryX=0;entryY=0.5;entryDx=0;entryDy=0;" parent="1" source="DFz6cAXaERrvMMqx2b_M-55" target="DFz6cAXaERrvMMqx2b_M-18" edge="1">
          <mxGeometry relative="1" as="geometry" />
        </mxCell>
        <mxCell id="DFz6cAXaERrvMMqx2b_M-57" style="edgeStyle=orthogonalEdgeStyle;curved=1;rounded=0;orthogonalLoop=1;jettySize=auto;html=1;exitX=1;exitY=0.5;exitDx=0;exitDy=0;entryX=0;entryY=0.5;entryDx=0;entryDy=0;" parent="1" source="DFz6cAXaERrvMMqx2b_M-19" target="b-EaO_gphr59r_hB4Qln-7" edge="1">
          <mxGeometry relative="1" as="geometry">
            <mxPoint x="90" y="-150" as="targetPoint" />
          </mxGeometry>
        </mxCell>
        <mxCell id="DFz6cAXaERrvMMqx2b_M-59" style="edgeStyle=orthogonalEdgeStyle;curved=1;rounded=0;orthogonalLoop=1;jettySize=auto;html=1;exitX=0;exitY=0.5;exitDx=0;exitDy=0;entryX=1;entryY=0.5;entryDx=0;entryDy=0;" parent="1" source="DFz6cAXaERrvMMqx2b_M-55" target="DFz6cAXaERrvMMqx2b_M-32" edge="1">
          <mxGeometry relative="1" as="geometry" />
        </mxCell>
        <mxCell id="DFz6cAXaERrvMMqx2b_M-60" style="edgeStyle=orthogonalEdgeStyle;curved=1;rounded=0;orthogonalLoop=1;jettySize=auto;html=1;exitX=0;exitY=0.5;exitDx=0;exitDy=0;entryX=1;entryY=0.5;entryDx=0;entryDy=0;" parent="1" source="DFz6cAXaERrvMMqx2b_M-34" target="DFz6cAXaERrvMMqx2b_M-40" edge="1">
          <mxGeometry relative="1" as="geometry" />
        </mxCell>
        <mxCell id="DFz6cAXaERrvMMqx2b_M-61" value="权限规则表&#xa;（amc_rule）" style="swimlane;fontStyle=0;childLayout=stackLayout;horizontal=1;startSize=50;horizontalStack=0;resizeParent=1;resizeParentMax=0;resizeLast=0;collapsible=1;marginBottom=0;align=center;fontSize=14;fillColor=#ffe6cc;strokeColor=#d79b00;" parent="1" vertex="1">
          <mxGeometry x="-1170" y="-1010" width="270" height="240" as="geometry" />
        </mxCell>
        <mxCell id="DFz6cAXaERrvMMqx2b_M-69" value="+id  规则id" style="text;strokeColor=none;fillColor=none;spacingLeft=4;spacingRight=4;overflow=hidden;rotatable=0;points=[[0,0.5],[1,0.5]];portConstraint=eastwest;fontSize=12;" parent="DFz6cAXaERrvMMqx2b_M-61" vertex="1">
          <mxGeometry y="50" width="270" height="30" as="geometry" />
        </mxCell>
        <mxCell id="DFz6cAXaERrvMMqx2b_M-62" value="+ruleName 规则名称" style="text;strokeColor=none;fillColor=none;spacingLeft=4;spacingRight=4;overflow=hidden;rotatable=0;points=[[0,0.5],[1,0.5]];portConstraint=eastwest;fontSize=12;" parent="DFz6cAXaERrvMMqx2b_M-61" vertex="1">
          <mxGeometry y="80" width="270" height="30" as="geometry" />
        </mxCell>
        <mxCell id="DFz6cAXaERrvMMqx2b_M-63" value="+ruleCode 规则编码" style="text;strokeColor=none;fillColor=none;spacingLeft=4;spacingRight=4;overflow=hidden;rotatable=0;points=[[0,0.5],[1,0.5]];portConstraint=eastwest;fontSize=12;" parent="DFz6cAXaERrvMMqx2b_M-61" vertex="1">
          <mxGeometry y="110" width="270" height="30" as="geometry" />
        </mxCell>
        <mxCell id="DFz6cAXaERrvMMqx2b_M-64" value="+ruleStatus 状态（0-禁用 1-启用）" style="text;strokeColor=none;fillColor=none;spacingLeft=4;spacingRight=4;overflow=hidden;rotatable=0;points=[[0,0.5],[1,0.5]];portConstraint=eastwest;fontSize=12;" parent="DFz6cAXaERrvMMqx2b_M-61" vertex="1">
          <mxGeometry y="140" width="270" height="30" as="geometry" />
        </mxCell>
        <mxCell id="DFz6cAXaERrvMMqx2b_M-65" value="+ruleDesc 规则描述" style="text;strokeColor=none;fillColor=none;spacingLeft=4;spacingRight=4;overflow=hidden;rotatable=0;points=[[0,0.5],[1,0.5]];portConstraint=eastwest;fontSize=12;" parent="DFz6cAXaERrvMMqx2b_M-61" vertex="1">
          <mxGeometry y="170" width="270" height="30" as="geometry" />
        </mxCell>
        <mxCell id="DFz6cAXaERrvMMqx2b_M-66" value="+ruleDimension 规则维度(0-无效 1-人[PS] &#xa;2-组织[OR] 3-区域[RE] 4-主体(AG)）" style="text;strokeColor=none;fillColor=none;spacingLeft=4;spacingRight=4;overflow=hidden;rotatable=0;points=[[0,0.5],[1,0.5]];portConstraint=eastwest;fontSize=12;" parent="DFz6cAXaERrvMMqx2b_M-61" vertex="1">
          <mxGeometry y="200" width="270" height="40" as="geometry" />
        </mxCell>
        <mxCell id="DFz6cAXaERrvMMqx2b_M-70" value="角色资源规则表&#xa;（amc_role_resource）" style="swimlane;fontStyle=0;childLayout=stackLayout;horizontal=1;startSize=50;horizontalStack=0;resizeParent=1;resizeParentMax=0;resizeLast=0;collapsible=1;marginBottom=0;align=center;fontSize=14;fillColor=#ffe6cc;strokeColor=#d79b00;" parent="1" vertex="1">
          <mxGeometry x="-810" y="-1380" width="270" height="140" as="geometry" />
        </mxCell>
        <mxCell id="DFz6cAXaERrvMMqx2b_M-71" value="+roleId 角色id" style="text;strokeColor=none;fillColor=none;spacingLeft=4;spacingRight=4;overflow=hidden;rotatable=0;points=[[0,0.5],[1,0.5]];portConstraint=eastwest;fontSize=12;" parent="DFz6cAXaERrvMMqx2b_M-70" vertex="1">
          <mxGeometry y="50" width="270" height="30" as="geometry" />
        </mxCell>
        <mxCell id="DFz6cAXaERrvMMqx2b_M-72" value="+resId 资源id" style="text;strokeColor=none;fillColor=none;spacingLeft=4;spacingRight=4;overflow=hidden;rotatable=0;points=[[0,0.5],[1,0.5]];portConstraint=eastwest;fontSize=12;" parent="DFz6cAXaERrvMMqx2b_M-70" vertex="1">
          <mxGeometry y="80" width="270" height="30" as="geometry" />
        </mxCell>
        <mxCell id="DFz6cAXaERrvMMqx2b_M-73" value="+resRuleId 资源权限id" style="text;strokeColor=none;fillColor=none;spacingLeft=4;spacingRight=4;overflow=hidden;rotatable=0;points=[[0,0.5],[1,0.5]];portConstraint=eastwest;fontSize=12;" parent="DFz6cAXaERrvMMqx2b_M-70" vertex="1">
          <mxGeometry y="110" width="270" height="30" as="geometry" />
        </mxCell>
        <mxCell id="DFz6cAXaERrvMMqx2b_M-77" value="角色信息表&#xa;（amc_role_resource）" style="swimlane;fontStyle=0;childLayout=stackLayout;horizontal=1;startSize=50;horizontalStack=0;resizeParent=1;resizeParentMax=0;resizeLast=0;collapsible=1;marginBottom=0;align=center;fontSize=14;fillColor=#ffe6cc;strokeColor=#d79b00;" parent="1" vertex="1">
          <mxGeometry x="-1330" y="-1580" width="270" height="300" as="geometry" />
        </mxCell>
        <mxCell id="DFz6cAXaERrvMMqx2b_M-78" value="+id 角色id" style="text;strokeColor=none;fillColor=none;spacingLeft=4;spacingRight=4;overflow=hidden;rotatable=0;points=[[0,0.5],[1,0.5]];portConstraint=eastwest;fontSize=12;" parent="DFz6cAXaERrvMMqx2b_M-77" vertex="1">
          <mxGeometry y="50" width="270" height="30" as="geometry" />
        </mxCell>
        <mxCell id="DFz6cAXaERrvMMqx2b_M-79" value="+roleName 角色名称" style="text;strokeColor=none;fillColor=none;spacingLeft=4;spacingRight=4;overflow=hidden;rotatable=0;points=[[0,0.5],[1,0.5]];portConstraint=eastwest;fontSize=12;" parent="DFz6cAXaERrvMMqx2b_M-77" vertex="1">
          <mxGeometry y="80" width="270" height="30" as="geometry" />
        </mxCell>
        <mxCell id="DFz6cAXaERrvMMqx2b_M-80" value="+roleType 角色类型（1-直营 2-职能 3-渠道部 &#xa;4-外部 5-外部通用 6-模块管理员 7-超级管理员）" style="text;strokeColor=none;fillColor=none;spacingLeft=4;spacingRight=4;overflow=hidden;rotatable=0;points=[[0,0.5],[1,0.5]];portConstraint=eastwest;fontSize=12;" parent="DFz6cAXaERrvMMqx2b_M-77" vertex="1">
          <mxGeometry y="110" width="270" height="40" as="geometry" />
        </mxCell>
        <mxCell id="DFz6cAXaERrvMMqx2b_M-82" value="+homeSystem 所属系统" style="text;strokeColor=none;fillColor=none;spacingLeft=4;spacingRight=4;overflow=hidden;rotatable=0;points=[[0,0.5],[1,0.5]];portConstraint=eastwest;fontSize=12;" parent="DFz6cAXaERrvMMqx2b_M-77" vertex="1">
          <mxGeometry y="150" width="270" height="30" as="geometry" />
        </mxCell>
        <mxCell id="DFz6cAXaERrvMMqx2b_M-83" value="+roleStatus 角色状态（0-禁用 1-启用） " style="text;strokeColor=none;fillColor=none;spacingLeft=4;spacingRight=4;overflow=hidden;rotatable=0;points=[[0,0.5],[1,0.5]];portConstraint=eastwest;fontSize=12;" parent="DFz6cAXaERrvMMqx2b_M-77" vertex="1">
          <mxGeometry y="180" width="270" height="30" as="geometry" />
        </mxCell>
        <mxCell id="DFz6cAXaERrvMMqx2b_M-84" value="+agentNo  渠道商编码" style="text;strokeColor=none;fillColor=none;spacingLeft=4;spacingRight=4;overflow=hidden;rotatable=0;points=[[0,0.5],[1,0.5]];portConstraint=eastwest;fontSize=12;" parent="DFz6cAXaERrvMMqx2b_M-77" vertex="1">
          <mxGeometry y="210" width="270" height="30" as="geometry" />
        </mxCell>
        <mxCell id="DFz6cAXaERrvMMqx2b_M-85" value="+resId  模块管理员角色对应的模块资源的id" style="text;strokeColor=none;fillColor=none;spacingLeft=4;spacingRight=4;overflow=hidden;rotatable=0;points=[[0,0.5],[1,0.5]];portConstraint=eastwest;fontSize=12;" parent="DFz6cAXaERrvMMqx2b_M-77" vertex="1">
          <mxGeometry y="240" width="270" height="30" as="geometry" />
        </mxCell>
        <mxCell id="DFz6cAXaERrvMMqx2b_M-86" value="+roleRemark 角色备注" style="text;strokeColor=none;fillColor=none;spacingLeft=4;spacingRight=4;overflow=hidden;rotatable=0;points=[[0,0.5],[1,0.5]];portConstraint=eastwest;fontSize=12;" parent="DFz6cAXaERrvMMqx2b_M-77" vertex="1">
          <mxGeometry y="270" width="270" height="30" as="geometry" />
        </mxCell>
      </root>
    </mxGraphModel>
  </diagram>
</mxfile>
